<?xml version="1.0" encoding="utf-8"?>
<!-- Generator: Adobe Illustrator 16.0.0, SVG Export Plug-In . SVG Version: 6.00 Build 0)  -->
<!DOCTYPE svg PUBLIC "-//W3C//DTD SVG 1.1//EN" "http://www.w3.org/Graphics/SVG/1.1/DTD/svg11.dtd">
<svg version="1.1" id="Layer_1" xmlns="http://www.w3.org/2000/svg" xmlns:xlink="http://www.w3.org/1999/xlink" x="0px" y="0px"
	 width="16px" height="16px" viewBox="0 0 16 16" enable-background="new 0 0 16 16" xml:space="preserve">
<circle fill="#33CCCC" cx="8" cy="8" r="8"/>
<g>
	<circle fill="#FFFFFF" cx="7.701" cy="8.313" r="0.678"/>
	<path fill="#FFFFFF" d="M11.571,5.276h-0.832V4.443c0-1.502-1.222-2.724-2.724-2.724c-1.503,0-2.725,1.222-2.725,2.724v0.833H4.426
		c-1.5,0-2.721,1.221-2.721,2.724c0,1.499,1.222,2.726,2.721,2.726h0.865v0.832c0,1.502,1.222,2.724,2.725,2.724
		c1.502,0,2.72-1.222,2.72-2.724v-0.832h0.836c1.501,0,2.725-1.227,2.725-2.726C14.296,6.497,13.072,5.276,11.571,5.276z
		 M11.571,9.945c-0.06,0-1.557,0-1.531,0c-0.044,0-0.079,0.035-0.079,0.081c0,0.022,0,1.629,0,1.531
		c0,1.072-0.874,1.945-1.946,1.945c-1.075,0-1.946-0.873-1.946-1.945v-0.837h1.633c1.327,0,2.409-1.078,2.409-2.408
		c0-1.327-1.082-2.409-2.409-2.409c-1.33,0-2.412,1.082-2.412,2.409v1.632H4.426C3.354,9.945,2.48,9.072,2.48,8
		c0-1.075,0.874-1.949,1.946-1.949c0.055,0,1.63,0,1.563,0c0.042,0,0.08-0.035,0.08-0.08c0-0.021,0-1.629,0-1.528
		c0-1.075,0.871-1.949,1.946-1.949c1.072,0,1.946,0.874,1.946,1.949c0-0.086,0,1.589,0,1.608c-0.047,0,1.58,0,1.61,0
		c1.072,0,1.947,0.875,1.947,1.949C13.519,9.072,12.644,9.945,11.571,9.945z M6.069,9.945V8.313c0-0.9,0.73-1.634,1.633-1.634
		c0.899,0,1.633,0.733,1.633,1.634c0,0.9-0.733,1.632-1.633,1.632H6.069z"/>
</g>
</svg>
